<svg width="1174" height="601" viewBox="0 0 1174 601" fill="none" xmlns="http://www.w3.org/2000/svg">
<path d="M227.75 398.15V410.65C227.75 427.218 241.181 440.65 257.75 440.65H545.25C561.819 440.65 575.25 454.081 575.25 470.65V522.15C575.25 538.718 588.681 552.15 605.25 552.15H803.75C820.319 552.15 833.75 565.581 833.75 582.15V600.15" stroke="#EBF2FC" stroke-width="4"/>
<path d="M222.25 100.15V79.9107C222.25 63.3421 235.681 49.9107 252.25 49.9107H508.494C521.544 49.9107 532.124 39.331 532.124 26.2803V26.2803C532.124 13.2296 542.704 2.64993 555.754 2.64993H846.25C862.819 2.64993 876.25 16.0814 876.25 32.6499V100.15" stroke="#EBF2FC" stroke-width="4"/>
<path d="M931.553 22.3102C940.835 16.9512 952.271 16.9512 961.553 22.3102L1127.7 118.237C1136.99 123.596 1142.7 133.5 1142.7 144.218V336.072C1142.7 346.79 1136.99 356.694 1127.7 362.053L961.553 457.98C952.271 463.339 940.835 463.339 931.553 457.98L765.403 362.053C756.121 356.694 750.403 346.79 750.403 336.072V144.218C750.403 133.5 756.121 123.596 765.403 118.237L931.553 22.3102Z" fill="#EBF2FC"/>
<path fill-rule="evenodd" clip-rule="evenodd" d="M804.486 415.131C804.486 419.324 806.725 423.201 810.36 425.301C818.632 430.081 833.532 438.68 840.919 442.946C841.829 443.467 842.946 443.467 843.856 442.946C844.767 442.425 845.325 441.448 845.325 440.405C845.325 431.939 845.325 414.947 845.325 405.475C845.325 401.275 843.085 397.398 839.45 395.298C831.178 390.525 816.281 381.919 808.891 377.653C807.982 377.131 806.863 377.131 805.954 377.653C805.045 378.181 804.486 379.151 804.486 380.201L804.486 415.131Z" fill="#C8D8EC"/>
<path fill-rule="evenodd" clip-rule="evenodd" d="M754.868 386.497C754.868 390.697 757.107 394.574 760.742 396.674C769.007 401.44 783.877 410.031 791.261 414.29C792.169 414.818 793.289 414.818 794.198 414.29C795.106 413.768 795.667 412.799 795.667 411.749C795.667 403.283 795.667 386.291 795.667 376.819C795.667 372.619 793.427 368.742 789.791 366.642C781.528 361.876 766.657 353.285 759.274 349.026C758.365 348.505 757.245 348.505 756.336 349.026C755.428 349.547 754.868 350.517 754.868 351.567C754.868 360.033 754.868 377.017 754.868 386.497Z" fill="#C8D8EC"/>
<path fill-rule="evenodd" clip-rule="evenodd" d="M804.486 358.177C804.486 362.37 806.725 366.247 810.36 368.347C818.632 373.127 833.532 381.726 840.919 385.992C841.829 386.514 842.946 386.514 843.856 385.992C844.767 385.464 845.325 384.494 845.325 383.444C845.325 374.919 845.325 357.737 845.325 348.191C845.325 343.991 843.085 340.114 839.45 338.014C831.176 333.241 816.281 324.642 808.891 320.376C807.982 319.855 806.863 319.855 805.954 320.376C805.045 320.905 804.486 321.874 804.486 322.924C804.486 331.449 804.486 348.632 804.486 358.177Z" fill="#C8D8EC"/>
<path fill-rule="evenodd" clip-rule="evenodd" d="M705.25 357.847C705.25 362.047 707.49 365.924 711.124 368.024C719.392 372.797 734.274 381.388 741.659 385.647C742.568 386.176 743.688 386.176 744.596 385.647C745.505 385.126 746.065 384.157 746.065 383.107C746.065 374.64 746.065 357.656 746.065 348.176C746.065 343.984 743.826 340.106 740.191 338.006C731.923 333.234 717.042 324.642 709.656 320.376C708.747 319.855 707.628 319.855 706.719 320.376C705.81 320.905 705.25 321.874 705.25 322.924C705.25 331.39 705.25 348.375 705.25 357.847Z" fill="#C8D8EC"/>
<path fill-rule="evenodd" clip-rule="evenodd" d="M754.868 329.518C754.868 333.719 757.107 337.596 760.743 339.696C769.007 344.469 783.877 353.053 791.261 357.311C792.169 357.84 793.289 357.84 794.198 357.311C795.106 356.79 795.667 355.821 795.667 354.771C795.667 346.246 795.667 329.063 795.667 319.517C795.667 315.317 793.426 311.44 789.791 309.34C781.526 304.575 766.656 295.991 759.274 291.732C758.365 291.203 757.245 291.203 756.336 291.732C755.428 292.253 754.868 293.222 754.868 294.272C754.868 302.798 754.868 319.973 754.868 329.518Z" fill="#C8D8EC"/>
<path fill-rule="evenodd" clip-rule="evenodd" d="M894.976 259.031C894.976 254.831 892.737 250.954 889.101 248.854C880.828 244.081 865.93 235.482 858.543 231.216C857.633 230.687 856.517 230.687 855.606 231.216C854.696 231.737 854.137 232.707 854.137 233.757C854.137 242.348 854.137 259.736 854.137 269.355C854.137 273.554 856.377 277.432 860.012 279.531C868.284 284.308 883.181 292.908 890.571 297.175C891.48 297.699 892.6 297.699 893.508 297.175C894.417 296.65 894.976 295.68 894.976 294.631C894.976 286.038 894.976 268.65 894.976 259.031Z" fill="#C8D8EC"/>
<path fill-rule="evenodd" clip-rule="evenodd" d="M705.25 300.861C705.25 305.061 707.49 308.938 711.125 311.038C719.392 315.811 734.274 324.402 741.659 328.669C742.568 329.19 743.688 329.19 744.596 328.669C745.505 328.14 746.065 327.171 746.065 326.121C746.065 317.595 746.065 300.42 746.065 290.875C746.065 286.682 743.825 282.801 740.19 280.702C731.922 275.93 717.041 267.341 709.656 263.079C708.747 262.554 707.628 262.554 706.719 263.079C705.81 263.604 705.25 264.573 705.25 265.622C705.25 274.147 705.25 291.322 705.25 300.861Z" fill="#C8D8EC"/>
<path fill-rule="evenodd" clip-rule="evenodd" d="M754.868 272.222C754.868 276.42 757.108 280.298 760.744 282.397C769.008 287.166 783.878 295.75 791.261 300.009C792.17 300.538 793.289 300.538 794.198 300.009C795.106 299.488 795.667 298.518 795.667 297.468C795.667 288.877 795.667 271.483 795.667 261.862C795.667 257.665 793.427 253.786 789.792 251.688C781.529 246.916 766.657 238.331 759.274 234.068C758.365 233.543 757.245 233.543 756.336 234.068C755.428 234.593 754.868 235.563 754.868 236.612C754.868 245.206 754.868 262.6 754.868 272.222Z" fill="#C8D8EC"/>
<path fill-rule="evenodd" clip-rule="evenodd" d="M860.026 395.312C856.391 397.404 854.152 401.289 854.152 405.482C854.152 414.961 854.152 431.946 854.152 440.412C854.152 441.455 854.71 442.431 855.62 442.953C856.531 443.474 857.647 443.474 858.557 442.953C865.944 438.686 880.828 430.095 889.089 425.322C892.724 423.222 894.964 419.345 894.964 415.145C894.964 405.673 894.964 388.688 894.964 380.222C894.964 379.172 894.405 378.203 893.495 377.681C892.592 377.153 891.468 377.153 890.558 377.681C883.178 381.94 868.294 390.539 860.026 395.312Z" fill="#A6B7CA"/>
<path fill-rule="evenodd" clip-rule="evenodd" d="M909.644 366.673C906.009 368.766 903.77 372.65 903.77 376.843C903.77 386.323 903.77 403.307 903.77 411.773C903.77 412.823 904.335 413.793 905.238 414.314C906.149 414.835 907.272 414.835 908.175 414.314C915.562 410.055 930.432 401.464 938.693 396.698C942.335 394.598 944.567 390.721 944.567 386.521C944.567 377.049 944.567 360.057 944.567 351.598C944.567 350.541 944.009 349.579 943.098 349.05C942.195 348.529 941.072 348.529 940.161 349.05C932.782 353.309 917.912 361.9 909.644 366.673Z" fill="#A6B7CA"/>
<path fill-rule="evenodd" clip-rule="evenodd" d="M860.026 338.031C856.391 340.131 854.152 344.008 854.152 348.208C854.152 357.746 854.152 374.921 854.152 383.447C854.152 384.497 854.71 385.466 855.62 385.987C856.531 386.516 857.647 386.516 858.558 385.987C865.945 381.728 880.829 373.137 889.089 368.357C892.724 366.264 894.964 362.387 894.964 358.187C894.964 348.641 894.964 331.473 894.964 322.948C894.964 321.898 894.406 320.929 893.495 320.4C892.592 319.879 891.468 319.879 890.558 320.4C883.178 324.667 868.294 333.258 860.026 338.031Z" fill="#A6B7CA"/>
<path fill-rule="evenodd" clip-rule="evenodd" d="M994.229 322.924C994.229 321.874 993.671 320.905 992.76 320.376C991.857 319.855 990.733 319.855 989.823 320.376C982.436 324.642 967.537 333.248 959.262 338.021C955.627 340.121 953.387 343.998 953.387 348.198C953.387 357.671 953.387 374.655 953.387 383.121C953.387 384.171 953.953 385.141 954.856 385.662C955.766 386.191 956.89 386.191 957.793 385.662C965.187 381.396 980.086 372.797 988.354 368.024C991.989 365.924 994.229 362.047 994.229 357.847C994.229 348.375 994.229 331.391 994.229 322.924Z" fill="#A6B7CA"/>
<path fill-rule="evenodd" clip-rule="evenodd" d="M909.644 309.372C906.009 311.472 903.77 315.349 903.77 319.549L903.77 354.788C903.77 355.838 904.335 356.807 905.238 357.328C906.149 357.857 907.272 357.857 908.175 357.328C915.562 353.069 930.432 344.485 938.693 339.713C942.335 337.613 944.567 333.735 944.567 329.535L944.567 294.297C944.567 293.247 944.009 292.277 943.098 291.756C942.195 291.227 941.072 291.227 940.161 291.756C932.782 296.015 917.912 304.606 909.644 309.372Z" fill="#A6B7CA"/>
<path fill-rule="evenodd" clip-rule="evenodd" d="M839.436 279.545C843.071 277.446 845.311 273.568 845.311 269.369C845.311 259.75 845.311 242.347 845.311 233.749C845.311 232.699 844.752 231.729 843.842 231.208C842.931 230.679 841.815 230.679 840.905 231.208C833.518 235.474 818.634 244.065 810.373 248.838C806.738 250.938 804.499 254.815 804.499 259.008C804.499 268.635 804.499 286.035 804.499 294.63C804.499 295.68 805.057 296.649 805.967 297.174C806.87 297.699 807.994 297.699 808.904 297.174C816.284 292.91 831.168 284.318 839.436 279.545Z" fill="#A6B7CA"/>
<path fill-rule="evenodd" clip-rule="evenodd" d="M959.262 280.723C955.627 282.822 953.387 286.703 953.387 290.896C953.387 300.442 953.387 317.61 953.387 326.135C953.387 327.185 953.953 328.154 954.856 328.683C955.767 329.204 956.89 329.204 957.793 328.683C965.188 324.417 980.086 315.811 988.354 311.038C991.989 308.938 994.229 305.061 994.229 300.86C994.229 291.322 994.229 274.148 994.229 265.624C994.229 264.575 993.671 263.605 992.76 263.08C991.857 262.555 990.734 262.555 989.823 263.08C982.436 267.347 967.537 275.947 959.262 280.723Z" fill="#A6B7CA"/>
<path fill-rule="evenodd" clip-rule="evenodd" d="M909.644 251.711C906.009 253.809 903.77 257.688 903.77 261.886C903.77 271.509 903.77 288.908 903.77 297.507C903.77 298.557 904.335 299.526 905.238 300.048C906.149 300.576 907.272 300.576 908.175 300.048C915.562 295.789 930.432 287.197 938.693 282.429C942.335 280.33 944.567 276.452 944.567 272.254C944.567 262.631 944.567 245.23 944.567 236.635C944.567 235.586 944.009 234.616 943.098 234.091C942.195 233.566 941.072 233.566 940.161 234.091C932.782 238.354 917.912 246.94 909.644 251.711Z" fill="#A6B7CA"/>
<path fill-rule="evenodd" clip-rule="evenodd" d="M912.534 192.713C911.623 193.238 911.065 194.207 911.065 195.256C911.065 196.306 911.623 197.276 912.534 197.8C919.921 202.065 943.073 215.437 943.073 215.437L943.087 175.069C943.087 175.069 919.921 188.446 912.534 192.713Z" fill="#A6B7CA"/>
<path fill-rule="evenodd" clip-rule="evenodd" d="M705.25 243.579C705.25 247.777 707.49 251.656 711.126 253.754C719.394 258.526 734.274 267.115 741.66 271.378C742.568 271.903 743.688 271.903 744.597 271.378C745.505 270.854 746.065 269.884 746.065 268.834C746.065 260.24 746.065 242.843 746.065 233.221C746.065 229.024 743.826 225.145 740.19 223.047C731.923 218.273 717.042 209.681 709.656 205.417C708.747 204.892 707.628 204.892 706.719 205.417C705.81 205.942 705.25 206.912 705.25 207.961C705.25 216.556 705.25 233.955 705.25 243.579Z" fill="#57A3FF"/>
<path fill-rule="evenodd" clip-rule="evenodd" d="M714.062 192.703C713.154 193.227 712.594 194.197 712.594 195.246C712.594 196.295 713.154 197.265 714.062 197.79C721.446 202.052 736.317 210.638 744.581 215.409C748.216 217.508 752.694 217.508 756.329 215.409C764.597 210.636 779.478 202.044 786.864 197.78C787.773 197.255 788.333 196.286 788.333 195.236C788.333 194.187 787.773 193.217 786.864 192.692C779.481 188.43 764.61 179.844 756.346 175.073C752.711 172.974 748.232 172.974 744.597 175.073C736.33 179.846 721.448 188.438 714.062 192.703Z" fill="#9FCDFF"/>
<path fill-rule="evenodd" clip-rule="evenodd" d="M886.116 309.889C887.024 309.364 887.585 308.395 887.585 307.346C887.585 306.296 887.024 305.327 886.116 304.802C878.728 300.536 863.837 291.94 855.569 287.165C851.934 285.067 847.455 285.067 843.82 287.165C835.552 291.939 820.668 300.531 813.288 304.795C812.378 305.319 811.82 306.289 811.82 307.338C811.82 308.388 812.378 309.358 813.288 309.882C820.675 314.148 835.559 322.744 843.835 327.518C847.47 329.617 851.949 329.617 855.583 327.518C863.852 322.745 878.73 314.153 886.116 309.889Z" fill="white"/>
<path fill-rule="evenodd" clip-rule="evenodd" d="M988.354 253.758L953.387 233.239C953.387 233.239 953.387 260.262 953.387 268.858C953.387 269.908 953.953 270.877 954.856 271.402C955.766 271.926 956.89 271.926 957.793 271.402C965.187 267.135 988.354 253.758 988.354 253.758Z" fill="white"/>
<path fill-rule="evenodd" clip-rule="evenodd" d="M862.916 221.367C862.012 221.891 861.447 222.861 861.447 223.91C861.447 224.96 862.012 225.929 862.916 226.454C870.31 230.72 885.194 239.316 893.462 244.09C897.097 246.189 901.576 246.189 905.211 244.09C913.479 239.319 928.348 230.733 935.728 226.471C936.639 225.946 937.197 224.977 937.197 223.927C937.197 222.877 936.639 221.908 935.728 221.383C928.341 217.118 913.457 208.522 905.189 203.747C901.547 201.648 897.075 201.648 893.44 203.747C885.172 208.518 870.303 217.104 862.916 221.367Z" fill="white"/>
<path fill-rule="evenodd" clip-rule="evenodd" d="M763.68 221.352C762.771 221.877 762.211 222.847 762.211 223.896C762.211 224.945 762.771 225.915 763.68 226.44C771.068 230.705 785.957 239.301 794.226 244.076C797.862 246.174 802.34 246.174 805.975 244.076C814.243 239.303 829.124 230.711 836.508 226.447C837.418 225.922 837.976 224.953 837.976 223.903C837.976 222.854 837.418 221.884 836.508 221.36C829.122 217.094 814.233 208.498 805.963 203.723C802.328 201.624 797.85 201.624 794.215 203.723C785.947 208.496 771.066 217.088 763.68 221.352Z" fill="white"/>
<path fill-rule="evenodd" clip-rule="evenodd" d="M813.298 192.692C812.389 193.217 811.829 194.187 811.829 195.236C811.829 196.286 812.389 197.255 813.298 197.78C820.686 202.046 835.574 210.641 843.842 215.416C847.477 217.515 851.956 217.515 855.591 215.416C863.859 210.645 878.728 202.059 886.115 197.796C887.019 197.272 887.584 196.302 887.584 195.253C887.584 194.204 887.019 193.234 886.115 192.709C878.721 188.444 863.837 179.847 855.561 175.073C851.927 172.974 847.448 172.974 843.813 175.073C835.552 179.844 820.68 188.431 813.298 192.692Z" fill="white"/>
<path fill-rule="evenodd" clip-rule="evenodd" d="M862.916 164.067C862.012 164.591 861.447 165.561 861.447 166.61C861.447 167.659 862.012 168.629 862.916 169.154C870.31 173.419 885.194 182.016 893.47 186.79C897.104 188.889 901.576 188.889 905.218 186.79C913.486 182.014 928.385 173.413 935.772 169.146C936.683 168.622 937.241 167.652 937.241 166.603C937.241 165.554 936.683 164.584 935.772 164.059C928.385 159.794 913.494 151.198 905.226 146.423C901.591 144.324 897.112 144.324 893.477 146.423C885.209 151.2 870.31 159.8 862.916 164.067Z" fill="white"/>
<path fill-rule="evenodd" clip-rule="evenodd" d="M763.68 164.067C762.772 164.591 762.211 165.562 762.211 166.611C762.211 167.66 762.772 168.63 763.68 169.154C771.063 173.417 785.935 182.003 794.199 186.774C797.833 188.873 802.312 188.873 805.947 186.774C814.211 182.003 829.083 173.417 836.462 169.154C837.373 168.63 837.931 167.66 837.931 166.611C837.931 165.562 837.373 164.592 836.462 164.067C829.083 159.805 814.211 151.219 805.947 146.447C802.312 144.349 797.833 144.349 794.199 146.447C785.935 151.219 771.063 159.805 763.68 164.067Z" fill="white"/>
<path fill-rule="evenodd" clip-rule="evenodd" d="M813.298 135.417C812.389 135.942 811.829 136.911 811.829 137.961C811.829 139.01 812.389 139.98 813.298 140.505C820.68 144.766 835.552 153.353 843.813 158.124C847.448 160.223 851.927 160.223 855.561 158.124C863.837 153.347 878.736 144.747 886.123 140.48C887.033 139.956 887.591 138.986 887.591 137.937C887.591 136.888 887.033 135.917 886.123 135.393C878.743 131.131 863.866 122.545 855.606 117.774C851.971 115.675 847.492 115.675 843.857 117.774C835.581 122.55 820.688 131.15 813.298 135.417Z" fill="white"/>
<path fill-rule="evenodd" clip-rule="evenodd" d="M1043.71 168.643C1039.63 170.997 1037.12 175.348 1037.12 180.059C1037.12 190.85 1037.12 210.373 1037.12 220.019C1037.12 221.197 1037.74 222.284 1038.77 222.869C1039.79 223.462 1041.04 223.462 1042.06 222.869C1050.35 218.083 1067.04 208.445 1076.31 203.091C1080.39 200.735 1082.9 196.385 1082.9 191.682C1082.9 180.882 1082.9 161.363 1082.9 151.72C1082.9 150.542 1082.28 149.455 1081.25 148.866C1080.24 148.277 1078.98 148.277 1077.96 148.866C1069.68 153.65 1052.98 163.289 1043.71 168.643Z" fill="#30B01E"/>
<path fill-rule="evenodd" clip-rule="evenodd" d="M981.412 191.655C981.412 196.367 983.925 200.716 988.003 203.072C997.284 208.426 1014 218.073 1022.28 222.859C1023.31 223.452 1024.56 223.452 1025.58 222.859C1026.6 222.274 1027.23 221.186 1027.23 220.009C1027.23 210.371 1027.23 190.864 1027.23 180.073C1027.23 175.363 1024.71 171.012 1020.64 168.657C1011.36 163.299 994.645 153.651 986.355 148.864C985.335 148.276 984.079 148.276 983.06 148.864C982.04 149.453 981.412 150.541 981.412 151.718C981.412 161.357 981.412 180.864 981.412 191.655Z" fill="#47CF34"/>
<path fill-rule="evenodd" clip-rule="evenodd" d="M991.32 134.601C990.301 135.19 989.672 136.278 989.672 137.455C989.672 138.632 990.301 139.72 991.319 140.308C999.608 145.094 1016.31 154.737 1025.59 160.094C1029.67 162.448 1034.69 162.448 1038.77 160.094C1048.04 154.739 1064.74 145.1 1073.02 140.316C1074.04 139.728 1074.67 138.64 1074.67 137.463C1074.67 136.286 1074.04 135.198 1073.02 134.609C1064.73 129.824 1048.04 120.181 1038.75 114.825C1034.67 112.47 1029.65 112.47 1025.57 114.825C1016.3 120.179 999.606 129.818 991.32 134.601Z" fill="#77F565"/>
<path fill-rule="evenodd" clip-rule="evenodd" d="M1140.36 248.678C1137.93 250.08 1136.43 252.672 1136.43 255.477C1136.43 261.905 1136.43 273.533 1136.43 279.278C1136.43 279.98 1136.8 280.628 1137.41 280.976C1138.02 281.329 1138.77 281.329 1139.37 280.976C1144.31 278.125 1154.26 272.385 1159.78 269.196C1162.2 267.792 1163.7 265.202 1163.7 262.4C1163.7 255.968 1163.7 244.342 1163.7 238.598C1163.7 237.897 1163.33 237.249 1162.72 236.898C1162.12 236.548 1161.37 236.548 1160.76 236.898C1155.83 239.748 1145.88 245.489 1140.36 248.678Z" fill="#287EE7"/>
<path fill-rule="evenodd" clip-rule="evenodd" d="M1103.25 262.384C1103.25 265.191 1104.75 267.781 1107.18 269.185C1112.71 272.374 1122.66 278.119 1127.6 280.97C1128.2 281.323 1128.95 281.323 1129.56 280.97C1130.17 280.621 1130.54 279.974 1130.54 279.272C1130.54 273.532 1130.54 261.913 1130.54 255.486C1130.54 252.68 1129.04 250.089 1126.61 248.687C1121.09 245.495 1111.13 239.749 1106.2 236.897C1105.59 236.547 1104.84 236.547 1104.23 236.897C1103.63 237.248 1103.25 237.896 1103.25 238.597C1103.25 244.338 1103.25 255.957 1103.25 262.384Z" fill="#57A3FF"/>
<path fill-rule="evenodd" clip-rule="evenodd" d="M1109.15 228.402C1108.55 228.753 1108.17 229.401 1108.17 230.102C1108.17 230.803 1108.55 231.451 1109.15 231.801C1114.09 234.652 1124.04 240.395 1129.56 243.586C1131.99 244.988 1134.99 244.988 1137.41 243.586C1142.94 240.396 1152.88 234.655 1157.82 231.806C1158.42 231.456 1158.8 230.808 1158.8 230.107C1158.8 229.405 1158.42 228.757 1157.82 228.407C1152.88 225.557 1142.93 219.813 1137.4 216.623C1134.98 215.221 1131.98 215.221 1129.55 216.623C1124.03 219.812 1114.09 225.553 1109.15 228.402Z" fill="#9FCDFF"/>
<path d="M51.75 84.4593C54.2252 83.0303 57.2748 83.0303 59.75 84.4593L99.8144 107.591C102.29 109.02 103.814 111.661 103.814 114.519V160.781C103.814 163.639 102.29 166.28 99.8144 167.709L59.75 190.841C57.2748 192.27 54.2252 192.27 51.75 190.841L11.6856 167.709C9.21038 166.28 7.68559 163.639 7.68559 160.781V114.519C7.68559 111.661 9.21038 109.02 11.6856 107.591L51.75 84.4593Z" fill="#EBF2FC"/>
<path d="M109.25 42.3046C110.488 41.5901 112.012 41.5901 113.25 42.3046L133.499 53.9952C134.736 54.7098 135.499 56.0303 135.499 57.4593V80.8405C135.499 82.2696 134.736 83.5901 133.499 84.3046L113.25 95.9952C112.012 96.7098 110.488 96.7098 109.25 95.9952L89.0013 84.3046C87.7637 83.5901 87.0013 82.2696 87.0013 80.8405V57.4593C87.0013 56.0303 87.7637 54.7098 89.0013 53.9952L109.25 42.3046Z" fill="#EBF2FC"/>
</svg>
